<svg width="57" height="56" fill="none" xmlns="http://www.w3.org/2000/svg"><path d="M.667 9.956c0-3.485 0-5.228.678-6.559A6.222 6.222 0 0 1 4.064.678C5.395 0 7.137 0 10.622 0h36.09c3.484 0 5.226 0 6.557.678a6.222 6.222 0 0 1 2.72 2.72c.678 1.33.678 3.073.678 6.558v36.088c0 3.485 0 5.228-.679 6.559a6.222 6.222 0 0 1-2.719 2.719C51.94 56 50.196 56 46.711 56H10.622c-3.485 0-5.227 0-6.558-.678a6.222 6.222 0 0 1-2.72-2.72c-.677-1.33-.677-3.073-.677-6.558V9.956z" fill="#fff"/><g clip-path="url(#a)"><rect x="9.167" y="8.5" width="39" height="39" rx="19.5" fill="#1977F3"/><path d="M36.164 33.857l.894-5.832h-5.594V24.24c0-1.595.78-3.152 3.287-3.152h2.545v-4.964s-2.31-.394-4.516-.394c-4.607 0-7.62 2.79-7.62 7.849v4.445h-5.122v5.832h5.122v14.096a20.25 20.25 0 0 0 3.152.243 20.61 20.61 0 0 0 3.152-.243V33.856h4.7z" fill="#fff"/></g><defs><clipPath id="a"><rect x="9.167" y="8.5" width="39" height="39" rx="19.5" fill="#fff"/></clipPath></defs></svg>