<svg width="57" height="56" fill="none" xmlns="http://www.w3.org/2000/svg"><rect x=".333" width="56" height="56" rx="6.222" fill="#fff"/><g clip-path="url(#a)"><path d="M12.884 40.798h5.692V27.394l-8.132-5.914v16.952c0 1.31 1.094 2.366 2.44 2.366z" fill="#4285F4"/><path d="M38.09 40.798h5.693c1.35 0 2.44-1.06 2.44-2.366V21.48l-8.132 5.914" fill="#34A853"/><path d="M38.09 17.143v10.25l8.132-5.913v-3.154c0-2.925-3.443-4.593-5.854-2.839" fill="#FBBC04"/><path d="M18.576 27.394v-10.25l9.757 7.096 9.758-7.097v10.25l-9.758 7.097" fill="#EA4335"/><path d="M10.444 18.325v3.154l8.132 5.914v-10.25l-2.277-1.656c-2.415-1.755-5.854-.087-5.854 2.838z" fill="#C5221F"/></g><defs><clipPath id="a"><path fill="#fff" transform="translate(10.444 14.778)" d="M0 0h35.778v26.02H0z"/></clipPath></defs></svg>