<svg width="57" height="56" fill="none" xmlns="http://www.w3.org/2000/svg"><path d="M.667 9.956c0-3.485 0-5.228.678-6.559A6.222 6.222 0 0 1 4.064.678C5.395 0 7.137 0 10.622 0h36.09c3.484 0 5.226 0 6.557.678a6.222 6.222 0 0 1 2.72 2.72c.678 1.33.678 3.073.678 6.558v36.088c0 3.485 0 5.228-.679 6.559a6.222 6.222 0 0 1-2.719 2.719C51.94 56 50.196 56 46.711 56H10.622c-3.485 0-5.227 0-6.558-.678a6.222 6.222 0 0 1-2.72-2.72c-.677-1.33-.677-3.073-.677-6.558V9.956z" fill="#fff"/><path d="M41.263 40.596H35.96v-8.302c0-1.98-.035-4.528-2.757-4.528-2.76 0-3.183 2.157-3.183 4.384v8.446h-5.302V23.523h5.09v2.333h.07a5.584 5.584 0 0 1 5.022-2.758c5.373 0 6.364 3.535 6.364 8.133l-.002 9.365zM18.738 21.19a3.091 3.091 0 0 1-3.077-3.076 3.091 3.091 0 0 1 3.076-3.076 3.091 3.091 0 0 1 3.077 3.075v.001a3.091 3.091 0 0 1-3.076 3.076zm2.65 19.407h-5.306V23.523h5.306v17.073zm22.517-30.482H13.418a2.623 2.623 0 0 0-2.64 2.578v30.615a2.625 2.625 0 0 0 2.64 2.582h30.487a2.63 2.63 0 0 0 2.65-2.582V12.69a2.628 2.628 0 0 0-2.65-2.579v.003z" fill="#2867B2"/></svg>