<svg width="56" height="56" fill="none" xmlns="http://www.w3.org/2000/svg"><path d="M0 9.956C0 6.47 0 4.728.678 3.397A6.222 6.222 0 0 1 3.398.678C4.727 0 6.47 0 9.955 0h36.088c3.485 0 5.228 0 6.559.678a6.222 6.222 0 0 1 2.719 2.72C56 4.727 56 6.47 56 9.955v36.088c0 3.485 0 5.228-.678 6.559a6.222 6.222 0 0 1-2.72 2.719C51.273 56 49.53 56 46.045 56H9.956c-3.485 0-5.228 0-6.559-.678a6.222 6.222 0 0 1-2.719-2.72C0 51.273 0 49.53 0 46.045V9.956z" fill="#fff"/><g clip-path="url(#a)"><path d="M43.182 20.266c.023.331.023.662.023.996 0 10.177-7.747 21.914-21.913 21.914v-.006a21.802 21.802 0 0 1-11.806-3.453 15.465 15.465 0 0 0 11.398-3.192 7.711 7.711 0 0 1-7.195-5.348 7.676 7.676 0 0 0 3.477-.133 7.702 7.702 0 0 1-6.178-7.55v-.097a7.641 7.641 0 0 0 3.496.964A7.711 7.711 0 0 1 12.1 14.078a21.859 21.859 0 0 0 15.873 8.046A7.71 7.71 0 0 1 41.098 15.1a15.455 15.455 0 0 0 4.89-1.87 7.73 7.73 0 0 1-3.385 4.26 15.316 15.316 0 0 0 4.422-1.213 15.643 15.643 0 0 1-3.843 3.99z" fill="#1D9BF0"/></g><defs><clipPath id="a"><path fill="#fff" transform="translate(9.334 12.444)" d="M0 0h37.821v31.111H0z"/></clipPath></defs></svg>